<svg width="752" height="719" viewBox="0 0 752 719" fill="none" xmlns="http://www.w3.org/2000/svg">
<line x1="376" y1="72" x2="376" y2="189" stroke="#FFEE52" stroke-width="6"/>
<line x1="275.878" y1="477.846" x2="225.878" y2="647.846" stroke="#FFEE52" stroke-width="6"/>
<line x1="473.878" y1="476.154" x2="523.878" y2="646.154" stroke="#FFEE52" stroke-width="6"/>
<line x1="525.981" y1="304" x2="695.98" y2="302.917" stroke="#FFEE52" stroke-width="6"/>
<line x1="55" y1="305" x2="226" y2="305" stroke="#FFEE52" stroke-width="6"/>
<line x1="57.6849" y1="313.662" x2="224.685" y2="648.662" stroke="#FFEE52" stroke-width="6"/>
<line x1="369.831" y1="192.993" x2="269.831" y2="477.993" stroke="#FFEE52" stroke-width="6"/>
<line x1="380.831" y1="191.007" x2="480.831" y2="476.007" stroke="#FFEE52" stroke-width="6"/>
<line x1="227.687" y1="304.519" x2="477.687" y2="474.519" stroke="#FFEE52" stroke-width="6"/>
<line x1="226" y1="304" x2="526" y2="304" stroke="#FFEE52" stroke-width="6"/>
<line x1="274.313" y1="474.519" x2="524.313" y2="304.519" stroke="#FFEE52" stroke-width="6"/>
<line x1="526" y1="646" x2="226" y2="646" stroke="#FFEE52" stroke-width="6"/>
<line x1="529.296" y1="645.7" x2="693.296" y2="304.7" stroke="#FFEE52" stroke-width="6"/>
<line x1="53.223" y1="305.583" x2="374.223" y2="69.5829" stroke="#FFEE52" stroke-width="6"/>
<line x1="694.167" y1="308.375" x2="374.167" y2="61.3748" stroke="#FFEE52" stroke-width="6"/>
<circle cx="226" cy="307" r="28.5" fill="white" stroke="#67B2E9" stroke-width="3"/>
<path d="M231.169 307.681H223.575V312.823H232.487V316H219.62V296.805H232.461V300.008H223.575V304.583H231.169V307.681Z" fill="#67B2E9"/>
<path d="M227.465 252.327C226.472 253.303 225.312 253.791 223.985 253.791C222.289 253.791 220.931 253.21 219.911 252.05C218.892 250.881 218.382 249.308 218.382 247.331C218.382 246.074 218.654 244.922 219.199 243.876C219.753 242.822 220.522 242.004 221.506 241.424C222.491 240.835 223.598 240.541 224.829 240.541C226.094 240.541 227.219 240.857 228.204 241.49C229.188 242.123 229.953 243.033 230.498 244.219C231.042 245.406 231.319 246.764 231.328 248.293V249.704C231.328 252.903 230.533 255.417 228.942 257.245C227.351 259.073 225.097 260.048 222.179 260.171L221.243 260.185V257.007L222.086 256.994C225.4 256.845 227.193 255.289 227.465 252.327ZM224.921 250.877C225.536 250.877 226.063 250.719 226.503 250.402C226.951 250.086 227.29 249.704 227.518 249.255V247.687C227.518 246.395 227.272 245.393 226.78 244.681C226.288 243.969 225.628 243.613 224.802 243.613C224.038 243.613 223.409 243.964 222.917 244.667C222.425 245.362 222.179 246.236 222.179 247.291C222.179 248.337 222.416 249.198 222.891 249.875C223.374 250.543 224.051 250.877 224.921 250.877Z" fill="black"/>
<circle cx="276" cy="477" r="28.5" fill="white" stroke="#67B2E9" stroke-width="3"/>
<path d="M268.434 486V466.805H274.34C276.027 466.805 277.535 467.187 278.862 467.952C280.198 468.708 281.239 469.789 281.986 471.195C282.733 472.592 283.107 474.183 283.107 475.967V476.851C283.107 478.635 282.738 480.221 282 481.61C281.27 482.999 280.237 484.075 278.901 484.84C277.565 485.604 276.058 485.991 274.379 486H268.434ZM272.389 470.008V482.823H274.3C275.847 482.823 277.029 482.317 277.847 481.307C278.664 480.296 279.082 478.85 279.099 476.969V475.954C279.099 474.003 278.695 472.526 277.886 471.524C277.078 470.514 275.896 470.008 274.34 470.008H272.389Z" fill="#67B2E9"/>
<path d="M235.564 487.907C235.564 488.838 235.332 489.665 234.866 490.385C234.4 491.106 233.758 491.682 232.941 492.112C233.873 492.561 234.611 493.18 235.156 493.971C235.701 494.753 235.973 495.676 235.973 496.74C235.973 498.445 235.393 499.794 234.233 500.787C233.073 501.771 231.495 502.264 229.5 502.264C227.505 502.264 225.923 501.767 224.754 500.774C223.585 499.781 223 498.436 223 496.74C223 495.676 223.273 494.749 223.818 493.958C224.363 493.167 225.097 492.552 226.02 492.112C225.202 491.682 224.561 491.106 224.095 490.385C223.638 489.665 223.409 488.838 223.409 487.907C223.409 486.272 223.954 484.971 225.044 484.004C226.134 483.029 227.615 482.541 229.487 482.541C231.35 482.541 232.827 483.024 233.917 483.991C235.015 484.949 235.564 486.254 235.564 487.907ZM232.15 496.463C232.15 495.628 231.908 494.96 231.425 494.459C230.941 493.958 230.291 493.708 229.474 493.708C228.665 493.708 228.019 493.958 227.536 494.459C227.052 494.951 226.811 495.619 226.811 496.463C226.811 497.28 227.048 497.939 227.522 498.44C227.997 498.941 228.656 499.192 229.5 499.192C230.326 499.192 230.972 498.95 231.438 498.467C231.913 497.983 232.15 497.315 232.15 496.463ZM231.754 488.091C231.754 487.344 231.557 486.747 231.161 486.298C230.766 485.841 230.208 485.613 229.487 485.613C228.775 485.613 228.221 485.833 227.826 486.272C227.43 486.711 227.232 487.318 227.232 488.091C227.232 488.856 227.43 489.471 227.826 489.937C228.221 490.403 228.779 490.636 229.5 490.636C230.221 490.636 230.774 490.403 231.161 489.937C231.557 489.471 231.754 488.856 231.754 488.091Z" fill="black"/>
<circle cx="476" cy="477" r="28.5" fill="white" stroke="#67B2E9" stroke-width="3"/>
<path d="M483.45 479.606C483.3 481.671 482.536 483.297 481.156 484.484C479.785 485.67 477.974 486.264 475.724 486.264C473.263 486.264 471.325 485.438 469.91 483.785C468.504 482.124 467.801 479.848 467.801 476.956V475.783C467.801 473.937 468.126 472.311 468.776 470.905C469.427 469.499 470.354 468.422 471.558 467.675C472.771 466.919 474.177 466.541 475.777 466.541C477.992 466.541 479.776 467.134 481.129 468.321C482.483 469.507 483.265 471.173 483.476 473.317H479.521C479.424 472.078 479.077 471.182 478.479 470.628C477.891 470.065 476.99 469.784 475.777 469.784C474.458 469.784 473.47 470.259 472.811 471.208C472.16 472.148 471.826 473.612 471.809 475.598V477.048C471.809 479.123 472.121 480.639 472.745 481.597C473.377 482.555 474.371 483.034 475.724 483.034C476.946 483.034 477.855 482.757 478.453 482.203C479.06 481.641 479.407 480.775 479.495 479.606H483.45Z" fill="#67B2E9"/>
<path d="M434.605 484.94L427.183 502H423.162L430.597 485.89H421.052V482.805H434.605V484.94Z" fill="black"/>
<circle cx="526" cy="307" r="28.5" fill="white" stroke="#67B2E9" stroke-width="3"/>
<path d="M518.592 316V296.805H525.315C527.645 296.805 529.411 297.253 530.615 298.149C531.819 299.037 532.421 300.342 532.421 302.065C532.421 303.005 532.18 303.836 531.696 304.557C531.213 305.269 530.541 305.792 529.679 306.125C530.664 306.372 531.437 306.868 532 307.615C532.571 308.362 532.856 309.276 532.856 310.357C532.856 312.203 532.268 313.601 531.09 314.55C529.912 315.499 528.233 315.982 526.054 316H518.592ZM522.547 307.642V312.823H525.935C526.867 312.823 527.592 312.603 528.11 312.164C528.638 311.715 528.901 311.1 528.901 310.318C528.901 308.56 527.992 307.668 526.172 307.642H522.547ZM522.547 304.847H525.474C527.469 304.812 528.466 304.016 528.466 302.46C528.466 301.59 528.211 300.966 527.702 300.588C527.201 300.202 526.405 300.008 525.315 300.008H522.547V304.847Z" fill="#67B2E9"/>
<path d="M528.889 352.607V355.745H528.52C526.797 355.771 525.409 356.219 524.354 357.089C523.308 357.959 522.68 359.168 522.469 360.715C523.488 359.678 524.776 359.159 526.332 359.159C528.001 359.159 529.329 359.757 530.313 360.952C531.297 362.147 531.79 363.721 531.79 365.672C531.79 366.92 531.517 368.049 530.972 369.06C530.436 370.071 529.671 370.857 528.678 371.42C527.694 371.982 526.578 372.264 525.33 372.264C523.308 372.264 521.673 371.561 520.425 370.154C519.186 368.748 518.566 366.872 518.566 364.525V363.154C518.566 361.071 518.958 359.234 519.74 357.643C520.531 356.043 521.66 354.809 523.128 353.938C524.604 353.06 526.314 352.616 528.256 352.607H528.889ZM525.171 362.218C524.556 362.218 523.998 362.38 523.497 362.706C522.996 363.022 522.627 363.444 522.39 363.971V365.131C522.39 366.406 522.64 367.403 523.141 368.124C523.642 368.836 524.345 369.192 525.25 369.192C526.068 369.192 526.727 368.871 527.228 368.229C527.738 367.579 527.993 366.74 527.993 365.711C527.993 364.666 527.738 363.822 527.228 363.18C526.718 362.539 526.033 362.218 525.171 362.218Z" fill="black"/>
<circle cx="376" cy="192" r="28.5" fill="white" stroke="#67B2E9" stroke-width="3"/>
<path d="M378.967 197.045H372.033L370.714 201H366.509L373.654 181.805H377.319L384.504 201H380.299L378.967 197.045ZM373.101 193.841H377.899L375.487 186.656L373.101 193.841Z" fill="#67B2E9"/>
<path d="M418.12 191.561L419.228 181.805H429.985V184.982H422.352L421.877 189.108C422.783 188.625 423.745 188.383 424.765 188.383C426.593 188.383 428.025 188.95 429.062 190.084C430.1 191.218 430.618 192.804 430.618 194.843C430.618 196.083 430.354 197.194 429.827 198.179C429.309 199.154 428.562 199.915 427.586 200.459C426.61 200.996 425.459 201.264 424.132 201.264C422.972 201.264 421.895 201.031 420.902 200.565C419.909 200.09 419.122 199.427 418.542 198.574C417.971 197.722 417.667 196.75 417.632 195.661H421.403C421.482 196.46 421.759 197.084 422.233 197.533C422.717 197.972 423.345 198.192 424.119 198.192C424.98 198.192 425.644 197.884 426.109 197.269C426.575 196.645 426.808 195.766 426.808 194.632C426.808 193.542 426.54 192.708 426.004 192.127C425.468 191.547 424.708 191.257 423.723 191.257C422.818 191.257 422.084 191.495 421.521 191.969L421.152 192.312L418.12 191.561Z" fill="black"/>
<circle cx="56" cy="307" r="28.5" fill="white" stroke="#67B2E9" stroke-width="3"/>
<path d="M61.1689 307.681H53.5752V312.823H62.4873V316H49.6201V296.805H62.4609V300.008H53.5752V304.583H61.1689V307.681Z" fill="#67B2E9"/>
<path d="M12.8252 307.775H15.0005V310.847H12.8252V315H9.01514V310.847H1.14453L0.973145 308.448L8.97559 295.805H12.8252V307.775ZM4.77002 307.775H9.01514V300.999L8.76465 301.434L4.77002 307.775Z" fill="black"/>
<circle cx="226" cy="647" r="28.5" fill="white" stroke="#67B2E9" stroke-width="3"/>
<path d="M218.434 656V636.805H224.34C226.027 636.805 227.535 637.187 228.862 637.952C230.198 638.708 231.239 639.789 231.986 641.195C232.733 642.592 233.107 644.183 233.107 645.967V646.851C233.107 648.635 232.738 650.221 232 651.61C231.27 652.999 230.237 654.075 228.901 654.84C227.565 655.604 226.058 655.991 224.379 656H218.434ZM222.389 640.008V652.823H224.3C225.847 652.823 227.029 652.317 227.847 651.307C228.664 650.296 229.082 648.85 229.099 646.969V645.954C229.099 644.003 228.695 642.526 227.886 641.524C227.078 640.514 225.896 640.008 224.34 640.008H222.389Z" fill="#67B2E9"/>
<path d="M222.429 700.715H224.459C225.426 700.715 226.143 700.473 226.608 699.99C227.074 699.506 227.307 698.865 227.307 698.065C227.307 697.292 227.074 696.689 226.608 696.259C226.151 695.828 225.519 695.613 224.71 695.613C223.98 695.613 223.37 695.815 222.877 696.219C222.385 696.615 222.139 697.133 222.139 697.775H218.329C218.329 696.773 218.597 695.876 219.133 695.085C219.678 694.286 220.434 693.662 221.401 693.213C222.376 692.765 223.449 692.541 224.618 692.541C226.648 692.541 228.239 693.029 229.39 694.004C230.542 694.971 231.117 696.307 231.117 698.012C231.117 698.891 230.849 699.7 230.313 700.438C229.777 701.176 229.074 701.743 228.204 702.139C229.285 702.525 230.089 703.105 230.616 703.879C231.152 704.652 231.42 705.566 231.42 706.621C231.42 708.326 230.796 709.693 229.548 710.721C228.309 711.75 226.666 712.264 224.618 712.264C222.702 712.264 221.133 711.758 219.911 710.748C218.698 709.737 218.092 708.401 218.092 706.74H221.902C221.902 707.46 222.17 708.049 222.706 708.506C223.251 708.963 223.919 709.192 224.71 709.192C225.615 709.192 226.323 708.955 226.833 708.48C227.351 707.997 227.61 707.359 227.61 706.568C227.61 704.652 226.556 703.694 224.446 703.694H222.429V700.715Z" fill="black"/>
<circle cx="526" cy="647" r="28.5" fill="white" stroke="#67B2E9" stroke-width="3"/>
<path d="M533.45 649.606C533.3 651.671 532.536 653.297 531.156 654.484C529.785 655.67 527.974 656.264 525.724 656.264C523.263 656.264 521.325 655.438 519.91 653.785C518.504 652.124 517.801 649.848 517.801 646.956V645.783C517.801 643.937 518.126 642.311 518.776 640.905C519.427 639.499 520.354 638.422 521.558 637.675C522.771 636.919 524.177 636.541 525.777 636.541C527.992 636.541 529.776 637.134 531.129 638.321C532.483 639.507 533.265 641.173 533.476 643.317H529.521C529.424 642.078 529.077 641.182 528.479 640.628C527.891 640.065 526.99 639.784 525.777 639.784C524.458 639.784 523.47 640.259 522.811 641.208C522.16 642.148 521.826 643.612 521.809 645.598V647.048C521.809 649.123 522.121 650.639 522.745 651.597C523.377 652.555 524.371 653.034 525.724 653.034C526.946 653.034 527.855 652.757 528.453 652.203C529.06 651.641 529.407 650.775 529.495 649.606H533.45Z" fill="#67B2E9"/>
<path d="M532.71 712H519.553V709.39L525.763 702.771C526.615 701.84 527.244 701.027 527.648 700.333C528.061 699.638 528.268 698.979 528.268 698.355C528.268 697.502 528.052 696.834 527.622 696.351C527.191 695.859 526.576 695.613 525.776 695.613C524.915 695.613 524.233 695.912 523.732 696.509C523.24 697.098 522.994 697.876 522.994 698.843H519.171C519.171 697.674 519.448 696.606 520.001 695.639C520.564 694.672 521.355 693.917 522.375 693.372C523.394 692.818 524.55 692.541 525.842 692.541C527.819 692.541 529.353 693.016 530.443 693.965C531.542 694.914 532.091 696.254 532.091 697.986C532.091 698.935 531.845 699.902 531.353 700.886C530.86 701.871 530.017 703.018 528.821 704.327L524.458 708.928H532.71V712Z" fill="black"/>
<circle cx="696" cy="307" r="28.5" fill="white" stroke="#67B2E9" stroke-width="3"/>
<path d="M688.592 316V296.805H695.315C697.645 296.805 699.411 297.253 700.615 298.149C701.819 299.037 702.421 300.342 702.421 302.065C702.421 303.005 702.18 303.836 701.696 304.557C701.213 305.269 700.541 305.792 699.679 306.125C700.664 306.372 701.437 306.868 702 307.615C702.571 308.362 702.856 309.276 702.856 310.357C702.856 312.203 702.268 313.601 701.09 314.55C699.912 315.499 698.233 315.982 696.054 316H688.592ZM692.547 307.642V312.823H695.935C696.867 312.823 697.592 312.603 698.11 312.164C698.638 311.715 698.901 311.1 698.901 310.318C698.901 308.56 697.992 307.668 696.172 307.642H692.547ZM692.547 304.847H695.474C697.469 304.812 698.466 304.016 698.466 302.46C698.466 301.59 698.211 300.966 697.702 300.588C697.201 300.202 696.405 300.008 695.315 300.008H692.547V304.847Z" fill="#67B2E9"/>
<path d="M746.808 315H742.998V300.313L738.45 301.724V298.626L746.399 295.778H746.808V315Z" fill="black"/>
<circle cx="376" cy="72" r="28.5" fill="white" stroke="#67B2E9" stroke-width="3"/>
<path d="M378.967 78.0449H372.033L370.714 82H366.509L373.654 62.8047H377.319L384.504 82H380.299L378.967 78.0449ZM373.101 74.8413H377.899L375.487 67.6562L373.101 74.8413Z" fill="#67B2E9"/>
<path d="M382.473 17.0635C382.473 19.7178 381.924 21.748 380.825 23.1543C379.727 24.5605 378.118 25.2637 376 25.2637C373.908 25.2637 372.309 24.5737 371.201 23.1938C370.094 21.814 369.527 19.8364 369.5 17.2612V13.728C369.5 11.0474 370.054 9.0127 371.162 7.62402C372.278 6.23535 373.882 5.54102 375.974 5.54102C378.065 5.54102 379.665 6.23096 380.772 7.61084C381.88 8.98193 382.447 10.9551 382.473 13.5303V17.0635ZM378.663 13.1875C378.663 11.5967 378.443 10.4409 378.004 9.72021C377.573 8.99072 376.896 8.62598 375.974 8.62598C375.077 8.62598 374.414 8.97314 373.983 9.66748C373.561 10.353 373.337 11.4297 373.311 12.8975V17.5645C373.311 19.1289 373.521 20.2935 373.943 21.0581C374.374 21.814 375.06 22.1919 376 22.1919C376.932 22.1919 377.604 21.8271 378.017 21.0977C378.43 20.3682 378.646 19.252 378.663 17.749V13.1875Z" fill="black"/>
</svg>
